<?xml version="1.0" encoding="utf-8"?>
<!-- Generator: Adobe Illustrator 21.0.0, SVG Export Plug-In . SVG Version: 6.00 Build 0)  -->
<svg version="1.1" id="Layer_1" xmlns="http://www.w3.org/2000/svg" xmlns:xlink="http://www.w3.org/1999/xlink" x="0px" y="0px"
	 viewBox="0 0 7549 1774" style="enable-background:new 0 0 7549 1774;" xml:space="preserve">
<style type="text/css">
	.st0{fill:#FFFFFF;}
</style>
<g>
	<g>
		<path class="st0" d="M2531.5,703.2h-368.1L2103,835.9h-143.8l316-705h145.3l316,705h-146.1L2531.5,703.2z M2347.5,280
			l-131.2,300.3h261.6L2347.5,280z"/>
		<path class="st0" d="M2939.2,131.7v582h362.2v123h-494.8v-705L2939.2,131.7L2939.2,131.7z"/>
		<path class="st0" d="M4171,335.8c0,54.4-26.1,106.6-91.7,135.6c82.7,25.3,112.5,112.5,112.5,157.2
			c0,157.2-117.7,207.2-263.8,207.2c-111.8,0-222.8,0-333.9,0v-705c111,0,222.8,0,333.9,0C4067.4,131.7,4171,194.3,4171,335.8z
			 M3725.4,414.8h203.4c83.5,0,111-35,111-75.3c0-32-26.1-86.4-111-86.4h-203.4V414.8z M3725.4,712.9h203.4
			c54.4,0,131.9-17.9,131.9-84.2c0-63.3-77.5-96.9-131.9-96.9h-203.4V712.9z"/>
		<path class="st0" d="M4786.5,703.2h-368.1L4358,835.9h-143.8l316-705h145.3l316,705h-145.3L4786.5,703.2z M4601.7,280
			l-131.2,300.3h261.6L4601.7,280z"/>
		<path class="st0" d="M5519.8,837.4V552.7h-346.5v284.7h-132.6v-705h132.6V429h346.5V132.4h131.9v705H5519.8z"/>
		<path class="st0" d="M6277,703.2h-368.1l-60.4,132.6h-143.8l316-705h145.3l316,705h-145.3L6277,703.2z M6092.9,280l-131.2,300.3
			h261.6L6092.9,280z"/>
		<path class="st0" d="M7166,836.6h-158l-205.7-235.5h-128.2v235.5h-132.6V130.9c111.8,0,223.6,0.7,335.3,0.7
			c166.2,0.7,253.4,111.8,253.4,233.3c0,96.9-44,194.5-178.1,221.3l213.1,240.7v9.7H7166z M6674.9,255.4v225.8h202.7
			c84.2,0,120.7-56.6,120.7-112.5c0-56.6-37.3-112.5-120.7-112.5L6674.9,255.4L6674.9,255.4z"/>
	</g>
	<g>
		<path class="st0" d="M2518.9,1116.1v33.5h-52.9v141.6h-39.5v-141.6h-52.9v-33.5H2518.9z"/>
		<path class="st0" d="M2643.3,1191.4c-3.7-0.7-7.5-1.5-11.9-3c-4.5-0.7-9.7-1.5-14.9-1.5c-2.2,0-5.2,0-8.2,0.7
			c-3,0.7-6,0.7-7.5,1.5v102.1h-38v-125.9c6.7-2.2,14.9-4.5,23.8-6.7c8.9-2.2,19.4-3,30.6-3c2.2,0,4.5,0,7.5,0.7c3,0,6,0.7,8.9,0.7
			c3,0.7,6,0.7,8.9,1.5s5.2,1.5,7.5,2.2L2643.3,1191.4z"/>
		<path class="st0" d="M2753.6,1154.8c11.2,0,20.1,1.5,27.6,3.7c7.5,2.2,13.4,6,17.9,11.2c4.5,4.5,7.5,10.4,9.7,17.1
			c1.5,6.7,3,14.2,3,22.4v78.2c-5.2,1.5-12.7,2.2-22.4,4.5c-9.7,1.5-21.6,2.2-35,2.2c-8.9,0-16.4-0.7-23.1-2.2
			c-6.7-1.5-12.7-3.7-17.9-7.5c-5.2-3.7-8.9-8.2-11.9-13.4c-3-5.2-3.7-12.7-3.7-20.9c0-7.5,1.5-14.2,4.5-19.4
			c3-5.2,7.5-9.7,12.7-12.7c5.2-3,11.2-5.2,17.9-6.7c6.7-1.5,13.4-2.2,20.9-2.2c5.2,0,8.9,0,12.7,0.7s6.7,0.7,8.9,1.5v-3.7
			c0-6.7-2.2-11.9-6-15.6c-3.7-3.7-10.4-6-20.1-6c-6.7,0-12.7,0.7-18.6,1.5s-11.9,2.2-16.4,3.7l-4.5-30.6c2.2-0.7,5.2-1.5,8.2-2.2
			c3-0.7,6.7-1.5,10.4-2.2c3.7-0.7,8.2-0.7,11.9-1.5C2744.7,1154.8,2749.1,1154.8,2753.6,1154.8z M2756.6,1265.1c3.7,0,7.5,0,10.4,0
			c3.7,0,6-0.7,8.2-0.7v-28.3c-1.5,0-3.7-0.7-6.7-0.7c-3,0-6-0.7-8.2-0.7c-3.7,0-6.7,0-9.7,0.7c-3,0.7-6,1.5-8.2,2.2
			c-2.2,1.5-4.5,3-5.2,4.5c-1.5,2.2-2.2,4.5-2.2,7.5c0,6,2.2,9.7,6,11.9C2743.9,1263.6,2749.9,1265.1,2756.6,1265.1z"/>
		<path class="st0" d="M3001.7,1286.7c-3.7,0.7-7.5,2.2-11.9,3c-4.5,0.7-8.9,1.5-14.2,2.2c-5.2,0.7-9.7,1.5-14.9,1.5
			c-5.2,0.7-9.7,0.7-14.2,0.7c-11.2,0-20.9-1.5-29.1-4.5c-8.9-3-15.6-7.5-21.6-14.2c-6-6-10.4-13.4-13.4-21.6
			c-3-8.2-4.5-17.9-4.5-29.1c0-10.4,1.5-20.9,3.7-29.1c3-8.9,6.7-16.4,11.9-22.4c5.2-6,11.2-10.4,18.6-14.2c7.5-3,15.6-4.5,25.3-4.5
			c5.2,0,9.7,0.7,14.2,1.5c4.5,0.7,8.2,2.2,12.7,4.5v-60.4l38-6v192.3L3001.7,1286.7L3001.7,1286.7z M2916,1223.4
			c0,11.9,3,20.9,8.2,28.3c5.2,7.5,12.7,10.4,23.1,10.4c3.7,0,6.7,0,9.7-0.7c3,0,5.2-0.7,7.5-0.7v-68.6c-2.2-1.5-5.2-3-8.9-3.7
			s-7.5-1.5-11.2-1.5C2925,1186.9,2916,1199.5,2916,1223.4z"/>
		<path class="st0" d="M3116.5,1119.8c0,6.7-2.2,12.7-6.7,16.4c-4.5,3.7-9.7,6-15.6,6s-11.2-2.2-15.6-6c-4.5-3.7-6.7-9.7-6.7-16.4
			c0-6.7,2.2-12.7,6.7-16.4c4.5-3.7,9.7-6,15.6-6c6,0,11.2,2.2,15.6,6C3114.3,1107.1,3116.5,1112.4,3116.5,1119.8z M3113.5,1291.2
			h-38v-133.4h38V1291.2z"/>
		<path class="st0" d="M3187.3,1162.3c6.7-1.5,14.9-3.7,24.6-5.2c10.4-1.5,20.9-2.2,32-2.2s20.9,1.5,28.3,4.5
			c7.5,3,13.4,7.5,17.9,12.7c4.5,5.2,7.5,11.9,9.7,19.4c1.5,7.5,3,15.6,3,24.6v75.3h-38v-70.8c0-11.9-1.5-20.9-4.5-26.1
			c-3-5.2-8.9-7.5-17.9-7.5c-3,0-5.2,0-8.9,0.7c-3.7,0.7-6,0.7-8.2,0.7v102.8h-38L3187.3,1162.3L3187.3,1162.3z"/>
		<path class="st0" d="M3489.9,1274.8c0,21.6-5.2,38-16.4,48.4c-11.2,10.4-28.3,15.6-51.4,15.6c-8.2,0-16.4-0.7-24.6-2.2
			c-8.2-1.5-15.6-3-22.4-6l6.7-31.3c6,2.2,11.9,4.5,18.6,5.2c6.7,1.5,14.2,2.2,22.4,2.2c10.4,0,18.6-2.2,23.1-7.5
			c4.5-4.5,6.7-10.4,6.7-17.9v-4.5c-3.7,1.5-8.2,3-12.7,4.5c-4.5,0.7-8.9,1.5-14.2,1.5c-18.6,0-32.8-5.2-42.5-16.4
			c-9.7-11.2-14.9-26.1-14.9-45.5c0-9.7,1.5-18.6,4.5-26.8c3-8.2,7.5-14.9,13.4-20.9c6-6,12.7-10.4,21.6-13.4
			c8.2-3,17.9-4.5,28.3-4.5c4.5,0,8.9,0,14.2,0.7c5.2,0.7,9.7,0.7,14.2,1.5c4.5,0.7,8.9,1.5,13.4,2.2c4.5,0.7,8.2,2.2,11.2,3v111.8
			H3489.9z M3407.1,1220.4c0,20.9,8.2,31.3,25.3,31.3c3.7,0,7.5-0.7,11.2-1.5s6-2.2,8.9-3.7v-60.4c-1.5,0-3.7-0.7-6.7-0.7
			c-2.2,0-5.2-0.7-8.9-0.7c-9.7,0-17.1,3-22.4,9.7C3409.4,1201.8,3407.1,1210,3407.1,1220.4z"/>
		<path class="st0" d="M3653.8,1245c0-6.7,0.7-11.9,3-17.9c1.5-5.2,4.5-10.4,7.5-14.2c3-4.5,6.7-8.2,11.2-11.2c4.5-3,8.2-6,12.7-8.9
			c-3.7-5.2-7.5-10.4-10.4-15.6c-3-6-4.5-11.9-4.5-18.6c0-14.9,4.5-26.1,13.4-34.3s21.6-11.9,37.3-11.9c8.2,0,14.9,0.7,20.9,3
			c6,2.2,11.2,5.2,14.9,8.9s6.7,8.2,8.9,12.7c2.2,4.5,3,9.7,3,15.6c0,10.4-3,19.4-8.9,27.6c-6,8.2-13.4,14.9-22.4,20.1l28.3,28.3
			c1.5-3.7,3-7.5,4.5-12.7c1.5-5.2,2.2-9.7,3-13.4l31.3,3.7c0,3-0.7,6.7-1.5,10.4c-0.7,3.7-2.2,7.5-3,11.2c-1.5,3.7-3,7.5-4.5,11.9
			c-1.5,3.7-3,7.5-5.2,10.4c5.2,6,10.4,12.7,15.6,20.1c5.2,7.5,9.7,14.2,13.4,21.6h-39.5c-1.5-2.2-3-5.2-6-8.2c-2.2-3-4.5-6-7.5-8.2
			c-6.7,5.2-14.9,9.7-23.8,13.4s-18.6,5.2-29.8,5.2c-11.9,0-21.6-1.5-29.8-4.5c-8.2-3-14.2-6.7-19.4-11.2
			c-4.5-4.5-8.2-9.7-10.4-15.6C3655.3,1256.2,3653.8,1250.2,3653.8,1245z M3688.8,1241.3c0,2.2,0.7,5.2,1.5,8.2c0.7,3,3,5.2,5.2,7.5
			c2.2,2.2,5.2,4.5,8.9,5.2c3.7,1.5,8.2,2.2,12.7,2.2c7.5,0,13.4-0.7,18.6-3c5.2-2.2,9.7-4.5,13.4-7.5l-41-40.2
			c-2.2,1.5-4.5,3-6.7,4.5c-2.2,1.5-4.5,3.7-6,6c-1.5,2.2-3.7,5.2-4.5,7.5C3689.6,1233.8,3688.8,1237.6,3688.8,1241.3z M3738,1153.3
			c0-3.7-1.5-7.5-3.7-10.4c-2.2-3-6.7-4.5-12.7-4.5c-5.2,0-9.7,1.5-12.7,5.2c-3,3-4.5,7.5-4.5,12.7c0,4.5,1.5,8.9,3.7,12.7
			c2.2,4.5,6,8.2,9.7,11.9c5.2-3,10.4-6.7,14.2-11.2C3736.5,1166,3738,1160.1,3738,1153.3z"/>
		<path class="st0" d="M4061.4,1294.9c-28.3,0-49.9-8.2-64.8-23.8c-14.9-15.6-22.4-38.8-22.4-67.8c0-14.2,2.2-27.6,6.7-38.8
			c4.5-11.2,10.4-20.9,18.6-29.1c8.2-8.2,17.1-14.2,28.3-17.9s23.1-6,35.8-6c7.5,0,14.2,0.7,20.1,1.5c6,0.7,11.2,2.2,15.6,3.7
			c4.5,1.5,8.2,3,11.2,4.5s5.2,3,6.7,3.7l-11.2,32c-5.2-3-11.9-5.2-18.6-7.5c-7.5-2.2-15.6-3-24.6-3c-6,0-11.9,0.7-17.9,3
			c-6,2.2-11.2,5.2-15.6,9.7c-4.5,4.5-8.2,10.4-10.4,17.1c-3,7.5-3.7,15.6-3.7,26.1c0,8.2,0.7,15.6,3,22.4
			c1.5,6.7,4.5,12.7,8.9,17.9c3.7,5.2,8.9,8.9,15.6,11.9c6.7,3,14.2,4.5,23.1,4.5c6,0,11.2,0,15.6-0.7c4.5-0.7,8.9-1.5,11.9-2.2
			c3.7-0.7,6.7-2.2,9.7-3c3-1.5,5.2-2.2,7.5-3l11.2,31.3c-5.2,3.7-13.4,6.7-23.8,8.9C4086.8,1293.4,4074.9,1294.9,4061.4,1294.9z"/>
		<path class="st0" d="M4302.9,1224.1c0,10.4-1.5,20.1-4.5,29.1c-3,8.9-7.5,16.4-13.4,22.4c-6,6-12.7,11.2-20.9,14.2
			c-8.2,3.7-17.1,5.2-26.8,5.2c-9.7,0-18.6-1.5-26.8-5.2c-8.2-3.7-14.9-8.2-20.9-14.2c-6-6-10.4-13.4-13.4-22.4
			c-3-8.9-4.5-18.6-4.5-29.1c0-10.4,1.5-20.1,5.2-28.3c3-8.9,8.2-15.6,13.4-22.4c6-6,12.7-10.4,20.9-14.2c8.2-3.7,16.4-5.2,26.1-5.2
			c9.7,0,18.6,1.5,26.8,5.2s14.9,8.2,20.9,14.2c6,6,10.4,13.4,13.4,22.4C4301.4,1204.8,4302.9,1213.7,4302.9,1224.1z M4264.9,1224.1
			c0-11.9-2.2-20.9-6.7-27.6c-4.5-6.7-11.2-9.7-20.1-9.7c-8.9,0-15.6,3-20.1,9.7s-7.5,15.6-7.5,27.6s2.2,20.9,7.5,27.6
			c4.5,6.7,11.2,10.4,20.1,10.4c8.9,0,14.9-3.7,20.1-10.4C4261.9,1245,4264.9,1236.1,4264.9,1224.1z"/>
		<path class="st0" d="M4370.7,1162.3c6.7-1.5,14.9-3.7,24.6-5.2c10.4-1.5,20.9-2.2,32-2.2c11.2,0,20.9,1.5,28.3,4.5
			c7.5,3,13.4,7.5,17.9,12.7c4.5,5.2,7.5,11.9,9.7,19.4c1.5,7.5,3,15.6,3,24.6v75.3h-38v-70.8c0-11.9-1.5-20.9-4.5-26.1
			c-3-5.2-8.9-7.5-17.9-7.5c-3,0-5.2,0-8.9,0.7c-3,0-6,0.7-8.2,0.7v102.8h-38L4370.7,1162.3L4370.7,1162.3z"/>
		<path class="st0" d="M4557,1125l38-6v39.5h45.5v31.3H4595v46.9c0,8.2,1.5,14.2,4.5,18.6c3,4.5,8.2,7.5,17.1,7.5
			c3.7,0,8.2-0.7,12.7-1.5s8.2-1.5,11.9-3l5.2,29.1c-4.5,1.5-9.7,3.7-14.9,4.5c-5.2,1.5-12.7,2.2-20.9,2.2
			c-10.4,0-18.6-1.5-25.3-4.5c-6.7-3-11.9-6.7-16.4-11.9c-3.7-5.2-6.7-11.2-8.2-17.9c-1.5-7.5-2.2-14.9-2.2-23.8v-111L4557,1125
			L4557,1125z"/>
		<path class="st0" d="M4789.5,1191.4c-3.7-0.7-7.5-1.5-11.9-3c-4.5-0.7-9.7-1.5-14.9-1.5c-2.2,0-5.2,0-8.2,0.7
			c-3,0.7-6,0.7-7.5,1.5v102.1h-38v-125.9c6.7-2.2,14.9-4.5,23.8-6.7c8.9-2.2,19.4-3,30.6-3c2.2,0,4.5,0,7.5,0.7c3,0,6,0.7,8.9,0.7
			c3,0.7,6,0.7,8.9,1.5s5.2,1.5,7.5,2.2L4789.5,1191.4z"/>
		<path class="st0" d="M4899.8,1154.8c11.2,0,20.1,1.5,27.6,3.7c7.5,2.2,13.4,6,17.9,11.2c4.5,4.5,7.5,10.4,9.7,17.1
			c1.5,6.7,3,14.2,3,22.4v78.2c-5.2,1.5-12.7,2.2-22.4,4.5c-9.7,1.5-21.6,2.2-35,2.2c-8.9,0-16.4-0.7-23.1-2.2
			c-6.7-1.5-12.7-3.7-17.9-7.5c-5.2-3.7-8.9-8.2-11.9-13.4c-3-5.2-3.7-12.7-3.7-20.9c0-7.5,1.5-14.2,4.5-19.4
			c3-5.2,7.5-9.7,12.7-12.7c5.2-3,11.2-5.2,17.9-6.7c6.7-1.5,13.4-2.2,20.9-2.2c5.2,0,8.9,0,12.7,0.7s6.7,0.7,8.9,1.5v-3.7
			c0-6.7-2.2-11.9-6-15.6c-3.7-3.7-10.4-6-20.1-6c-6.7,0-12.7,0.7-18.6,1.5c-6,0.7-11.9,2.2-16.4,3.7l-4.5-30.6
			c2.2-0.7,5.2-1.5,8.2-2.2c3-0.7,6.7-1.5,10.4-2.2c3.7-0.7,8.2-0.7,11.9-1.5C4890.9,1154.8,4895.3,1154.8,4899.8,1154.8z
			 M4902.8,1265.1c3.7,0,7.5,0,10.4,0c3.7,0,6-0.7,8.2-0.7v-28.3c-1.5,0-3.7-0.7-6.7-0.7c-3,0-6-0.7-8.2-0.7c-3.7,0-6.7,0-9.7,0.7
			c-3,0.7-6,1.5-8.2,2.2c-2.2,1.5-4.5,3-5.2,4.5c-1.5,2.2-2.2,4.5-2.2,7.5c0,6,2.2,9.7,6,11.9
			C4890.1,1263.6,4896.1,1265.1,4902.8,1265.1z"/>
		<path class="st0" d="M5024.3,1224.9c0-9.7,1.5-18.6,4.5-27.6c3-8.2,7.5-15.6,13.4-22.4c6-6,13.4-11.2,21.6-14.9s17.9-5.2,29.1-5.2
			c7.5,0,13.4,0.7,19.4,2.2c6,1.5,11.9,3,17.1,5.2l-8.2,29.8c-3.7-1.5-7.5-2.2-11.9-3.7c-4.5-0.7-8.9-1.5-14.2-1.5
			c-11.2,0-19.4,3.7-24.6,10.4s-8.2,16.4-8.2,27.6c0,11.9,2.2,21.6,7.5,27.6c5.2,6.7,14.2,9.7,26.8,9.7c4.5,0,9.7-0.7,14.9-1.5
			c5.2-0.7,9.7-2.2,14.2-3.7l5.2,30.6c-4.5,1.5-9.7,3.7-16.4,4.5c-6.7,1.5-14.2,2.2-21.6,2.2c-11.9,0-22.4-1.5-31.3-5.2
			c-8.9-3.7-15.6-8.2-21.6-14.9c-6-6-9.7-13.4-12.7-22.4C5025,1243.5,5024.3,1234.6,5024.3,1224.9z"/>
		<path class="st0" d="M5194.2,1125l38-6v39.5h45.5v31.3h-45.5v46.9c0,8.2,1.5,14.2,4.5,18.6c3,4.5,8.2,7.5,17.1,7.5
			c3.7,0,8.2-0.7,12.7-1.5s8.2-1.5,11.9-3l5.2,29.1c-4.5,1.5-9.7,3.7-14.9,4.5c-5.2,1.5-12.7,2.2-20.9,2.2
			c-10.4,0-18.6-1.5-25.3-4.5c-6.7-3-11.9-6.7-16.4-11.9c-3.7-5.2-6.7-11.2-8.2-17.9c-1.5-7.5-2.2-14.9-2.2-23.8v-111L5194.2,1125
			L5194.2,1125z"/>
		<path class="st0" d="M5387.9,1119.8c0,6.7-2.2,12.7-6.7,16.4c-4.5,3.7-9.7,6-15.6,6c-6,0-11.2-2.2-15.6-6
			c-4.5-3.7-6.7-9.7-6.7-16.4c0-6.7,2.2-12.7,6.7-16.4c4.5-3.7,9.7-6,15.6-6c6,0,11.2,2.2,15.6,6
			C5385.7,1107.1,5387.9,1112.4,5387.9,1119.8z M5384.2,1291.2h-38v-133.4h38V1291.2z"/>
		<path class="st0" d="M5458,1162.3c6.7-1.5,14.9-3.7,24.6-5.2c10.4-1.5,20.9-2.2,32-2.2s20.9,1.5,28.3,4.5
			c7.5,3,13.4,7.5,17.9,12.7c4.5,5.2,7.5,11.9,9.7,19.4c1.5,7.5,3,15.6,3,24.6v75.3h-38v-70.8c0-11.9-1.5-20.9-4.5-26.1
			c-3-5.2-8.9-7.5-17.9-7.5c-3,0-5.2,0-8.9,0.7c-3,0-6,0.7-8.2,0.7v102.8h-38L5458,1162.3L5458,1162.3z"/>
		<path class="st0" d="M5760.5,1274.8c0,21.6-5.2,38-16.4,48.4c-11.2,10.4-28.3,15.6-51.4,15.6c-8.2,0-16.4-0.7-24.6-2.2
			c-8.2-1.5-15.6-3-22.4-6l6.7-31.3c6,2.2,11.9,4.5,18.6,5.2c6.7,0.7,14.2,2.2,22.4,2.2c10.4,0,18.6-2.2,23.1-7.5
			c4.5-4.5,6.7-10.4,6.7-17.9v-4.5c-3.7,1.5-8.2,3-12.7,4.5c-4.5,0.7-8.9,1.5-14.2,1.5c-18.6,0-32.8-5.2-42.5-16.4
			c-9.7-11.2-14.9-26.1-14.9-45.5c0-9.7,1.5-18.6,4.5-26.8s7.5-14.9,13.4-20.9c6-6,12.7-10.4,21.6-13.4c8.2-3,17.9-4.5,28.3-4.5
			c4.5,0,8.9,0,14.2,0.7c4.5,0.7,9.7,0.7,14.2,1.5c4.5,0.7,8.9,1.5,13.4,2.2c4.5,0.7,8.2,2.2,11.2,3v111.8H5760.5z M5677.8,1220.4
			c0,20.9,8.2,31.3,25.3,31.3c3.7,0,7.5-0.7,11.2-1.5s6-2.2,8.9-3.7v-60.4c-1.5,0-3.7-0.7-6.7-0.7c-2.2,0-5.2-0.7-8.9-0.7
			c-9.7,0-17.1,3-22.4,9.7C5680,1201.8,5677.8,1210,5677.8,1220.4z"/>
		<path class="st0" d="M6054.1,1134.7c2.2,6.7,4.5,14.9,6.7,23.1c2.2,8.9,5.2,17.9,8.2,26.8c3,8.9,6,18.6,8.2,27.6
			c3,8.9,6,17.9,8.2,26.1c2.2-8.9,4.5-17.9,6.7-28.3s4.5-20.9,6.7-31.3c2.2-10.4,3.7-21.6,6-32c2.2-10.4,3.7-20.9,5.2-31.3h41
			c-6,29.1-12.7,58.9-20.9,89.4c-7.5,30.6-16.4,58.9-25.3,86.4H6069c-6-16.4-11.9-33.5-17.1-50.7c-5.2-17.9-11.2-35.8-16.4-53.7
			c-5.2,17.9-11.2,35.8-16.4,53.7c-5.2,17.9-11.2,35-17.1,50.7h-35.8c-8.9-26.8-17.1-55.9-25.3-86.4c-7.5-30.6-14.9-60.4-20.1-89.4
			h42.5c1.5,9.7,3.7,20.1,6,31.3c2.2,10.4,4.5,21.6,6.7,32c2.2,10.4,4.5,21.6,6.7,31.3c2.2,10.4,4.5,19.4,6.7,28.3
			c3-8.2,6-17.1,8.9-26.1c3-8.9,6-18.6,8.2-27.6c3-8.9,5.2-17.9,7.5-26.8c2.2-8.9,4.5-16.4,6-23.1H6054.1z"/>
		<path class="st0" d="M6238.2,1271.1c0,7.5-2.2,13.4-7.5,17.1c-4.5,3.7-10.4,6-16.4,6c-6,0-11.2-2.2-16.4-6
			c-4.5-3.7-7.5-9.7-7.5-17.1s2.2-13.4,7.5-17.1c4.5-3.7,10.4-6,16.4-6c6,0,11.2,2.2,16.4,6
			C6235.2,1257.7,6238.2,1263.6,6238.2,1271.1z"/>
		<path class="st0" d="M6421.5,1257.7v34.3h-117v-175.1h39.5v141.6h77.5V1257.7z"/>
		<path class="st0" d="M6529.6,1271.1c0,7.5-2.2,13.4-7.5,17.1c-4.5,3.7-10.4,6-16.4,6c-6,0-11.2-2.2-16.4-6
			c-4.5-3.7-7.5-9.7-7.5-17.1s2.2-13.4,7.5-17.1c4.5-3.7,10.4-6,16.4-6c6,0,11.2,2.2,16.4,6
			C6527.4,1257.7,6529.6,1263.6,6529.6,1271.1z"/>
		<path class="st0" d="M6713.7,1257.7v34.3h-117v-175.1h39.5v141.6h77.5V1257.7z"/>
	</g>
	<g>
		<g>
			<path class="st0" d="M2977.2,1618.4c-3,0-6,0-8.9-0.7c-10.4-0.7-16.4-2.2-17.1-2.2c-15.6,0-19.4,9.7-19.4,27.6
				c0,22.4-0.7,4.5,0.7,26.1c-8.2,0.7-23.8,1.5-26.8,1.5c-2.2,0-3.7-0.7-3.7-3.7l0.7-20.1c0-35.8,20.1-47.7,35-49.9
				c-3-6-4.5-13.4-4.5-21.6c0-30.6,23.8-51.4,54.4-51.4c7.5,0,30.6,5.2,35.8,8.2c1.5,0.7,2.2,3.7,2.2,12.7v46.2
				c0,26.8-19.4,27.6-25.3,27.6L2977.2,1618.4L2977.2,1618.4z M2990.6,1596.7c6,0,4.5-11.2,4.5-11.2v-43.2c-2.2-0.7-5.2-1.5-8.9-1.5
				c-11.9,0-24.6,10.4-24.6,27.6c0,18.6,11.2,27.6,26.1,27.6L2990.6,1596.7L2990.6,1596.7z"/>
			<path class="st0" d="M3069.6,1587.1c9.7,0,14.9,7.5,14.9,16.4c0,10.4-6.7,17.1-17.1,17.1c-7.5,0-15.6-5.2-15.6-16.4
				C3051.7,1594.5,3057.6,1587.1,3069.6,1587.1L3069.6,1587.1z"/>
			<path class="st0" d="M3197,1618.4c-3,0-6,0-8.9-0.7c-10.4-0.7-16.4-2.2-17.1-2.2c-15.6,0-19.4,9.7-19.4,27.6
				c0,22.4-0.7,4.5,0.7,26.1c-8.2,0.7-23.8,1.5-26.8,1.5c-2.2,0-3.7-0.7-3.7-3.7l0.7-20.1c0-35.8,20.1-47.7,35.8-49.9
				c-3-6-4.5-13.4-4.5-21.6c0-30.6,23.8-51.4,54.4-51.4c7.5,0,30.6,5.2,35.8,8.2c1.5,0.7,2.2,3.7,2.2,12.7v46.2
				c0,26.8-19.4,27.6-25.3,27.6L3197,1618.4L3197,1618.4z M3211.2,1596.7c6,0,4.5-11.2,4.5-11.2v-43.2c-2.2-0.7-5.2-1.5-8.9-1.5
				c-11.9,0-24.6,10.4-24.6,27.6c0,18.6,11.2,27.6,26.1,27.6L3211.2,1596.7L3211.2,1596.7z"/>
			<path class="st0" d="M3289.4,1587.1c9.7,0,14.9,7.5,14.9,16.4c0,10.4-6.7,17.1-17.1,17.1c-7.5,0-15.6-5.2-15.6-16.4
				C3272.3,1594.5,3277.5,1587.1,3289.4,1587.1L3289.4,1587.1z"/>
			<path class="st0" d="M3380.3,1618.4c-17.1,0-22.4-5.2-23.1-24.6l0.7-0.7c5.2,4.5,33.5,3,50.7,3c-2.2-41-11.2-47.7-24.6-47.7
				c-3,0-3.7-3.7-3.7-8.2c0-6,2.2-17.9,5.2-17.9c29.8,2.2,52.2,28.3,52.2,73.8v21.6h-57.4V1618.4z M3381.1,1484.2
				c6-3,22.4-6,23.1-5.2c1.5,0.7,2.2,3,4.5,19.4c0,0.7,0,2.2-0.7,3c-1.5,3-11.2,3.7-23.8,6
				C3384.8,1496.9,3382.6,1488.7,3381.1,1484.2"/>
			<path class="st0" d="M3632.9,1659.3c0,8.2-3.7,17.1-11.9,17.1c-33.5,0-71.5-6.7-71.5-48.4c0-17.1,7.5-29.1,23.1-36.5
				c-8.2-4.5-12.7-14.2-12.7-27.6c0-23.8,22.4-42.5,52.2-42.5c14.2,0,24.6,4.5,28.3,8.2c0,6-2.2,14.9-11.2,14.9
				c-4.5-1.5-11.2-3-15.6-3c-13.4,0-24.6,8.9-24.6,18.6c0,36.5,30.6,24.6,50.7,21.6l0.7,0.7c-0.7,16.4-11.2,23.1-26.8,24.6h-2.2
				h-2.2c-15.6,0-29.1,7.5-29.1,23.8c0,23.8,13.4,30.6,30.6,30.6c8.2,0,18.6-1.5,22.4-3V1659.3z M3590.5,1482.7c6-3,22.4-6,23.1-5.2
				c1.5,0.7,2.2,3,4.5,19.4c0,0.7,0,2.2-0.7,3c-1.5,3-11.2,3.7-23.8,6C3593.4,1495.4,3592,1487.9,3590.5,1482.7"/>
			<path class="st0" d="M3779,1618.4c-6,29.1-21.6,41.7-52.9,41.7c-26.8,0-56.6-8.9-56.6-66.3v-40.2c0-4.5,1.5-5.2,4.5-5.2
				c6-0.7,17.1-0.7,21.6-0.7c0,3.7-0.7,8.9-0.7,14.9v33.5c0,36.5,11.9,44,28.3,44c13.4,0,28.3-6,28.3-42.5v-46.2
				c0-6.7-0.7-11.2-0.7-13.4c4.5-0.7,20.9-1.5,25.3-1.5c4.5,0,4.5,2.2,4.5,12.7v49.9h29.1v21.6H3779L3779,1618.4L3779,1618.4z
				 M3709.7,1503.6c6-3,22.4-6,23.1-5.2c1.5,0.7,2.2,3,4.5,19.4c0,0.7,0,2.2-0.7,3c-1.5,3-11.2,3.7-23.8,6
				C3713.4,1516.3,3711.2,1508.1,3709.7,1503.6"/>
			<path class="st0" d="M3807.3,1661.6c-1.5-0.7-2.2-3-4.5-19.4c0-0.7,0-2.2,0.7-3c1.5-3,11.2-3.7,23.8-6c0,10.4,2.2,18.6,3,23.1
				C3824.5,1659.3,3808.1,1662.3,3807.3,1661.6 M3806.6,1618.4v-21.6h12.7c8.2,0,14.2-6,14.2-16.4v-23.1c0-11.9-0.7-17.1-0.7-21.6
				c4.5-2.2,20.1-4.5,25.3-4.5c3.7,0,4.5,0.7,4.5,13.4v35c0,5.2-0.7,11.2-2.2,16.4h30.6v21.6h-84.2L3806.6,1618.4L3806.6,1618.4z
				 M3841.6,1661.6c-1.5-0.7-2.2-3-4.5-19.4c0-0.7,0-2.2,0.7-3c1.5-3,11.2-3.7,23.8-6c0,10.4,2.2,18.6,3,23.1
				C3858,1659.3,3842.3,1662.3,3841.6,1661.6"/>
			<path class="st0" d="M3882.6,1492.4c6-3,22.4-6,23.1-5.2c1.5,0.7,2.2,3,4.5,19.4c0,0.7,0,2.2-0.7,3c-1.5,3-11.2,3.7-23.8,6
				C3886.3,1505.1,3884.1,1496.9,3882.6,1492.4 M3885.6,1618.4v-21.6h12.7c8.2,0,14.2-6,14.2-16.4v-23.1c0-11.9-0.7-17.1-0.7-21.6
				c4.5-2.2,20.1-4.5,25.3-4.5c3.7,0,4.5,0.7,4.5,13.4v35c0,5.2-0.7,11.2-2.2,16.4h30.6v21.6h-84.2L3885.6,1618.4L3885.6,1618.4z
				 M3916.9,1492.4c6-3,22.4-6,23.1-5.2c1.5,0.7,2.2,3,4.5,19.4c0,0.7,0,2.2-0.7,3c-1.5,3-11.2,3.7-23.8,6
				C3919.9,1505.1,3918.4,1496.9,3916.9,1492.4"/>
			<path class="st0" d="M3965.3,1618.4v-21.6h47.7v-49.2c-0.7-7.5-6.7-12.7-15.6-12.7c-9.7,0-17.9,6-21.6,6c-7.5,0-8.9-7.5-8.9-13.4
				c3-2.2,6-3.7,9.7-6c11.9-14.9,24.6-31.3,35-46.2c5.2,0,23.1,0.7,23.1,6c0,5.2-14.9,21.6-23.8,32.8c15.6,2.2,30.6,13.4,30.6,35
				v44.7c0,2.2,2.2,4.5,7.5,4.5c0.7,0,2.2,0,3,0v0.7c0,12.7-6,20.1-19.4,20.1h-67.1V1618.4z"/>
			<path class="st0" d="M4086,1502.8c0-11.9-0.7-17.1-0.7-21.6c4.5-2.2,20.1-4.5,25.3-4.5c3.7,0,4.5,0.7,4.5,13.4v99.9
				c0,10.4,0.7,21.6,0.7,27.6c-4.5,0.7-23.8,1.5-26.8,1.5c-2.2,0-3-0.7-3-3V1502.8z"/>
			<path class="st0" d="M4194.8,1618.4c-1.5,13.4-5.2,23.1-11.2,30.6c-8.2,10.4-19.4,13.4-26.8,13.4c-6,0-11.2-5.2-12.7-12.7v-0.7
				c17.9-6,22.4-11.2,22.4-55.1v-37.3c0-12.7-0.7-18.6-0.7-22.4c5.2-1.5,20.9-3,25.3-3c3.7,0,4.5,0.7,4.5,13.4v52.2h29.1v21.6
				L4194.8,1618.4L4194.8,1618.4z"/>
			<path class="st0" d="M4217.9,1492.4c6-3,22.4-6,23.1-5.2c1.5,0.7,2.2,3,4.5,19.4c0,0.7,0,2.2-0.7,3c-1.5,3-11.2,3.7-23.8,6
				C4220.9,1505.1,4218.7,1496.9,4217.9,1492.4 M4220.9,1618.4v-21.6h12.7c8.2,0,14.2-6,14.2-16.4v-23.1c0-11.9-0.7-17.1-0.7-21.6
				c4.5-2.2,20.1-4.5,25.3-4.5c3.7,0,4.5,0.7,4.5,13.4v35c0,5.2-0.7,11.2-2.2,16.4h30.6v21.6h-84.2L4220.9,1618.4L4220.9,1618.4z
				 M4251.5,1492.4c6-3,22.4-6,23.1-5.2c1.5,0.7,2.2,3,4.5,19.4c0,0.7,0,2.2-0.7,3c-1.5,3-11.2,3.7-23.8,6
				C4255.2,1505.1,4253,1496.9,4251.5,1492.4"/>
			<path class="st0" d="M4299.9,1618.4v-21.6h12.7c8.2,0,14.2-6,14.2-16.4v-23.1c0-11.9-0.7-17.1-0.7-21.6
				c4.5-2.2,20.1-4.5,25.3-4.5c3.7,0,4.5,0.7,4.5,13.4v35c0,14.9-3.7,38.8-31.3,38.8H4299.9z M4326,1492.4c6-3,22.4-6,23.1-5.2
				c1.5,0.7,2.2,3,4.5,19.4c0,0.7,0,2.2-0.7,3c-1.5,3-11.2,3.7-23.8,6C4329,1505.1,4326.7,1496.9,4326,1492.4"/>
			<path class="st0" d="M4487.7,1618.4c-1.5,13.4-5.2,23.1-11.2,30.6c-8.2,10.4-19.4,13.4-26.8,13.4c-6,0-11.2-5.2-12.7-12.7v-0.7
				c13.4-4.5,20.1-8.9,21.6-30.6h-17.1c-27.6,0-44.7-15.6-44.7-43.2c0-30.6,23.8-51.4,54.4-51.4c7.5,0,30.6,5.2,35.8,8.2
				c1.5,0.7,2.2,3.7,2.2,12.7v52.2h28.3v21.6H4487.7z M4460.1,1542.3c-2.2-0.7-5.2-1.5-8.2-1.5c-12.7,0-24.6,10.4-24.6,27.6
				c0,18.6,11.2,27.6,26.1,27.6h6.7V1542.3L4460.1,1542.3z"/>
			<path class="st0" d="M4513,1618.4v-21.6h47.7v-49.2c-0.7-7.5-6.7-12.7-15.6-12.7c-9.7,0-17.9,6-21.6,6c-7.5,0-8.9-7.5-8.9-13.4
				c3-2.2,6-3.7,9.7-6c11.9-14.9,24.6-31.3,35-46.2c5.2,0,23.1,0.7,23.1,6c0,5.2-14.9,21.6-23.8,32.8c15.6,2.2,30.6,13.4,30.6,35
				v44.7c0,2.2,2.2,4.5,7.5,4.5c0.7,0,2.2,0,3,0v0.7c0,12.7-6,20.1-19.4,20.1H4513V1618.4z"/>
			<path class="st0" d="M4732.9,1618.4c-17.1,0-22.4-5.2-23.1-24.6l0.7-0.7c5.2,4.5,33.5,3,50.7,3c-2.2-41-11.2-47.7-24.6-47.7
				c-3,0-3.7-3.7-3.7-8.2c0-6,2.2-17.9,5.2-17.9c29.8,2.2,52.2,28.3,52.2,73.8h28.3v21.6h-85.7V1618.4z"/>
			<path class="st0" d="M4814.1,1618.4v-21.6h12.7c8.2,0,14.2-6,14.2-16.4v-23.1c0-11.9-0.7-17.1-0.7-21.6
				c4.5-2.2,20.1-4.5,25.3-4.5c3.7,0,4.5,0.7,4.5,13.4v35c0,14.9-3.7,38.8-31.3,38.8H4814.1z M4840.2,1492.4c6-3,22.4-6,23.1-5.2
				c1.5,0.7,2.2,3,4.5,19.4c0,0.7,0,2.2-0.7,3c-1.5,3-11.2,3.7-23.8,6C4843.2,1505.1,4840.9,1496.9,4840.2,1492.4"/>
			<path class="st0" d="M4914.7,1493.9c0,14.2,0.7,102.1,0.7,119.2c0,4.5-1.5,5.2-6,5.2c-8.2,0.7-20.9,0.7-24.6,0.7
				c0-11.2,0.7-57.4,0.7-99.1c-2.2-20.1,15.6-26.1,27.6-27.6L4914.7,1493.9z"/>
			<path class="st0" d="M5100.3,1618.4c-13.4,0.7-24.6,7.5-24.6,21.6c0,14.9,13.4,22.4,30.6,22.4c8.2,0,18.6-1.5,22.4-3l0.7,0.7
				c0,8.2-3.7,17.1-11.9,17.1c-33.5,0-71.5-7.5-71.5-40.2c0-19.4,8.9-31.3,28.3-38c-4.5-6-8.9-15.6-8.9-23.8
				c0-30.6,22.4-50.7,52.2-50.7c14.2,0,24.6,4.5,28.3,8.2c0,6-3,14.9-11.2,14.9c-4.5-1.5-11.2-3-15.6-3c-13.4,0-24.6,8.9-24.6,26.8
				c0,16.4,8.9,25.3,20.1,25.3h55.9v21.6H5100.3z M5095.8,1485.7c6-3,22.4-6,23.1-5.2c1.5,0.7,2.2,3,4.5,19.4c0,0.7,0,2.2-0.7,3
				c-1.5,3-11.2,3.7-23.8,6C5099.5,1498.4,5097.3,1490.2,5095.8,1485.7"/>
			<path class="st0" d="M5166.6,1618.4v-21.6h12.7c8.2,0,14.2-6,14.2-16.4v-23.1c0-11.9-0.7-17.1-0.7-21.6
				c4.5-2.2,20.1-4.5,25.3-4.5c3.7,0,4.5,0.7,4.5,13.4v35c0,5.2-0.7,11.2-2.2,16.4h30.6v21.6h-84.2L5166.6,1618.4L5166.6,1618.4z
				 M5191.9,1492.4c6-3,22.4-6,23.1-5.2c1.5,0.7,2.2,3,4.5,19.4c0,0.7,0,2.2-0.7,3c-1.5,3-11.2,3.7-23.8,6
				C5194.9,1505.1,5193.4,1496.9,5191.9,1492.4"/>
			<path class="st0" d="M5241.9,1661.6c-1.5-0.7-2.2-3-4.5-19.4c0-0.7,0-2.2,0.7-3c1.5-3,11.2-3.7,23.8-6c0,10.4,2.2,18.6,3,23.1
				C5259,1659.3,5242.6,1662.3,5241.9,1661.6 M5246.3,1618.4v-21.6h12.7c8.2,0,14.2-6,14.2-16.4v-23.1c0-11.9-0.7-17.1-0.7-21.6
				c4.5-2.2,20.1-4.5,25.3-4.5c3.7,0,4.5,0.7,4.5,13.4v35c0,14.9-3.7,38.8-31.3,38.8H5246.3z M5276.1,1661.6
				c-1.5-0.7-2.2-3-4.5-19.4c0-0.7,0-2.2,0.7-3c1.5-3,11.2-3.7,23.8-6c0,10.4,2.2,18.6,3,23.1
				C5293.3,1659.3,5276.9,1662.3,5276.1,1661.6"/>
			<path class="st0" d="M5370.8,1618.4c-17.1,0-22.4-5.2-23.1-24.6l0.7-0.7c5.2,4.5,33.5,3,50.7,3c-2.2-41-11.2-47.7-24.6-47.7
				c-3,0-3.7-3.7-3.7-8.2c0-6,2.2-17.9,5.2-17.9c29.8,2.2,52.2,28.3,52.2,73.8h28.3v21.6h-85.7V1618.4z"/>
			<path class="st0" d="M5447.5,1661.6c-1.5-0.7-2.2-3-4.5-19.4c0-0.7,0-2.2,0.7-3c1.5-3,11.2-3.7,23.8-6c0,10.4,2.2,18.6,3,23.1
				C5464.7,1659.3,5449,1662.3,5447.5,1661.6 M5452,1618.4v-21.6h12.7c8.2,0,14.2-6,14.2-16.4v-23.1c0-11.9-0.7-17.1-0.7-21.6
				c4.5-2.2,20.1-4.5,25.3-4.5c3.7,0,4.5,0.7,4.5,13.4v35c0,14.9-3.7,38.8-31.3,38.8H5452z M5481.8,1661.6c-1.5-0.7-2.2-3-4.5-19.4
				c0-0.7,0-2.2,0.7-3c1.5-3,11.2-3.7,23.8-6c0,10.4,2.2,18.6,3,23.1C5499,1659.3,5482.6,1662.3,5481.8,1661.6"/>
			<path class="st0" d="M5587.6,1618.4c-1.5,13.4-5.2,23.1-11.2,30.6c-8.2,10.4-19.4,13.4-26.8,13.4c-6,0-11.2-5.2-12.7-12.7v-0.7
				c17.9-6,22.4-11.2,22.4-55.1v-37.3c0-12.7-0.7-18.6-0.7-22.4c5.2-1.5,20.9-3,25.3-3c3.7,0,4.5,0.7,4.5,13.4v52.2h29.1v21.6
				L5587.6,1618.4L5587.6,1618.4z"/>
			<path class="st0" d="M5608.5,1492.4c6-3,22.4-6,23.1-5.2c1.5,0.7,2.2,3,4.5,19.4c0,0.7,0,2.2-0.7,3c-1.5,3-11.2,3.7-23.8,6
				C5611.5,1505.1,5610,1496.9,5608.5,1492.4 M5613.7,1618.4v-21.6h12.7c8.2,0,14.2-6,14.2-16.4v-23.1c0-11.9-0.7-17.1-0.7-21.6
				c4.5-2.2,20.1-4.5,25.3-4.5c3.7,0,4.5,0.7,4.5,13.4v35c0,14.9-3.7,38.8-31.3,38.8H5613.7z M5642,1492.4c6-3,22.4-6,23.1-5.2
				c1.5,0.7,2.2,3,4.5,19.4c0,0.7,0,2.2-0.7,3c-1.5,3-11.2,3.7-23.8,6C5645.8,1505.1,5643.5,1496.9,5642,1492.4"/>
			<path class="st0" d="M5823.9,1618.4c-1.5,13.4-5.2,23.1-11.2,30.6c-8.2,10.4-19.4,13.4-26.8,13.4c-6,0-11.2-5.2-12.7-12.7v-0.7
				c17.9-6,22.4-11.2,22.4-55.1v-37.3c0-12.7-0.7-18.6-0.7-22.4c5.2-1.5,20.9-3,25.3-3c3.7,0,4.5,0.7,4.5,13.4v52.2h29.1v21.6
				L5823.9,1618.4L5823.9,1618.4z"/>
			<path class="st0" d="M5850,1618.4v-21.6h84.2c-1.5-0.7-3-8.2-3-16.4c0-17.1-11.9-40.2-36.5-40.2c-8.2,0-17.1,1.5-20.1,3
				c-2.2,0.7-3.7,0-5.2-0.7c-2.2-1.5-6-10.4-6-13.4c3-4.5,15.6-8.9,32-8.9c32,0,61.1,20.1,62.6,55.1c0,4.5,3,20.9,7.5,20.9h22.4
				v21.6H5850L5850,1618.4L5850,1618.4z"/>
			<path class="st0" d="M5984.1,1618.4v-21.6h12.7c8.2,0,14.2-6,14.2-16.4v-23.1c0-11.9-0.7-17.1-0.7-21.6
				c4.5-2.2,20.1-4.5,25.3-4.5c3.7,0,4.5,0.7,4.5,13.4v35c0,5.2-0.7,11.2-2.2,16.4h30.6v21.6h-84.2V1618.4L5984.1,1618.4z
				 M6007.9,1636.2c6-3,22.4-6,23.1-5.2c1.5,0.7,2.2,3,4.5,19.4c0,0.7,0,2.2-0.7,3c-1.5,3-11.2,3.7-23.8,6
				C6010.9,1648.9,6009.4,1640.7,6007.9,1636.2"/>
			<path class="st0" d="M6063.8,1618.4v-21.6h12.7c6.7,0,13.4-4.5,13.4-17.1v-79c0-11.9-0.7-17.1-0.7-21.6
				c4.5-2.2,20.1-4.5,25.3-4.5c3.7,0,4.5,0.7,4.5,13.4v94.6c0,20.1-8.9,35-31.3,35.8H6063.8z"/>
			<path class="st0" d="M6164.4,1502.8c0-11.9-0.7-17.1-0.7-21.6c4.5-2.2,20.1-4.5,25.3-4.5c3.7,0,4.5,0.7,4.5,13.4v99.9
				c0,10.4,0.7,21.6,0.7,27.6c-4.5,0.7-23.8,1.5-26.8,1.5c-2.2,0-3-0.7-3-3V1502.8z"/>
		</g>
	</g>
	<path class="st0" d="M6713.7,1566.2h-375.6c-7.5,0-12.7,6-12.7,12.7c0,7.5,6,12.7,12.7,12.7h375.6V1566.2z"/>
	<rect x="2381.7" y="1566.2" class="st0" width="364.4" height="25.3"/>
</g>
<g>
	<g>
		<path class="st0" d="M1638,1002.1c-27.6-44-56.6-87.2-85-130.4c-154.3-235.5-309.3-471-464.3-706.5c-4.5-6.7-8.9-13.4-14.2-20.1
			c-4.5-6.7-10.4-6.7-15.6,0c-3,3.7-5.2,7.5-8.2,11.2c-71.5,109.5-143.1,219.1-214.6,328.6c-111,168.4-221.3,337.6-333.1,506
			c-52.9,79.7-80.5,165.4-70.8,262.3c7.5,69.3,29.1,133.4,70.8,188.5c42.5,56.6,86.4,111.8,130.4,168.4c18.6,24.6,38,48.4,58.9,74.5
			c55.9-71.5,110.3-140.8,164.7-210.2c2.2,0.7,3.7,1.5,6,2.2v15.6c0,54.4,0,108.8,0,163.9c0,31.3-0.7,29.1,30.6,29.1
			c73,0,145.3-0.7,218.3,0c31.3,0.7,61.1-5.2,90.2-16.4c117.7-42.5,183.3-163.9,152-284.7c-3.7-15.6-11.9-46.2-35.8-78.2
			c-18.6-25.3-38-40.2-49.9-48.4c-20.9-15.6-41-25.3-55.9-32c-7.5,8.2-15.6,17.1-23.1,26.8c-7.5,8.9-14.9,17.9-20.9,26.1
			c5.2,2.2,12.7,6,20.9,10.4c52.2,30.6,106.6,102.8,93.2,178.1c-17.1,96.1-125.2,138.6-149.8,139.4c-58.1,2.2-116.3,0-174.4,0.7
			c-14.2,0-19.4-5.2-19.4-19.4c0-68.6,0-136.4,0-204.9c0-11.2,3.7-20.9,11.2-29.8c17.1-20.1,32-41.7,48.4-62.6
			c79-101.3,157.2-202,236.2-303.3c41.7-53.7,55.9-115.5,41-180.3c-35-153.5-226.5-211.6-344.3-104.3
			c-46.2,41.7-69.3,93.9-69.3,157.2c0.7,151.3,0,301.8,0.7,453.1c0,17.9-4.5,32.8-16.4,46.9c-44.7,55.9-88.7,113.3-132.6,169.9
			c-6.7,8.9-11.9,19.4-23.8,26.1c-41-52.9-82.7-103.6-121.5-155.7c-78.2-105.1-81.2-243.7-10.4-353.2c21.6-32.8,42.5-65.6,64.1-98.4
			c143.1-218.3,286.9-435.9,430-653.6c3.7-6,5.2-13.4,12.7-15.6c6,2.2,7.5,8.2,10.4,12.7c41,61.9,82,124.5,123,187
			C1322.8,669,1448,859,1572.4,1049c70.8,108.1,67.8,245.2-10.4,350.3c-64.8,86.4-131.9,171.4-198.2,257.1c-3,3.7-6,6.7-8.2,10.4
			h102.1c52.9-69.3,105.8-137.9,159.5-206.4c57.4-73,85.7-154.3,85-247.4C1701.4,1135.5,1679,1066.2,1638,1002.1z M941.2,856.8
			c0-56.6,35-105.8,87.2-123c54.4-17.9,114.8-4.5,152,44c32,42.5,34.3,102.8,1.5,150.5c-23.1,33.5-49.2,65.6-73.8,97.6
			c-49.2,64.1-99.1,127.4-149,190.8c-4.5,5.2-6,13.4-14.2,14.9c-5.2-3.7-3-8.2-3-12.7C941.2,1098.2,940.5,977.5,941.2,856.8z"/>
		<path class="st0" d="M693.8,1710l-32-40.2c-13.4-17.1-26.8-33.5-39.5-49.9c-11.9-15.6-23.8-30.6-35.8-45.5
			c-31.3-40.2-63.3-81.2-94.6-122.2c-41.7-55.1-66.3-120-73.8-196.7c-9.7-93.9,14.2-183.3,73-272.7
			c108.1-163.9,219.8-333.9,332.4-506c47.7-72.3,95.4-145.3,141.6-216.9c24.6-37.3,48.4-74.5,73-111.8c3-4.5,6-8.2,8.9-11.9
			c7.5-8.9,14.9-11.2,20.1-10.4c5.2,0,13.4,2.2,20.1,11.2c4.5,6,8.9,12.7,14.2,20.9c155,235.5,309.3,471,464.3,706.5l3,4.5
			c26.8,41,55.1,83.5,82,125.9c44,68.6,65.6,140.1,66.3,219.1c0.7,96.9-28.3,180.3-87.9,257.1c-48.4,61.9-100.6,129.7-159.5,206.4
			l-4.5,6H1328l17.1-24.6c2.2-3,4.5-5.2,6-8.2c0.7-1.5,2.2-2.2,3-3.7c21.6-28.3,44-56.6,65.6-85c44-55.9,88.7-114,131.9-172.1
			c73.8-98.4,77.5-228.8,9.7-332.4c-93.2-142.3-187.8-286.2-279.5-425.5l-93.9-144.6c-40.2-61.1-80.5-122.2-120.7-182.6
			c-143.1,217.6-286.9,435.2-430,653.6c-21.6,32.8-42.5,65.6-64.1,98.4c-67.8,104.3-64.1,235.5,9.7,334.6
			c26.8,35.8,53.7,70.1,82.7,106.6c9.7,11.9,18.6,23.8,28.3,35.8c1.5-1.5,2.2-3,3.7-5.2c1.5-3,3.7-5.2,5.2-7.5
			c17.1-21.6,33.5-43.2,50.7-64.8c26.8-34.3,54.4-70.1,82.7-105.1c8.9-11.2,12.7-22.4,12.7-37.3c0-68.6,0-137.9,0-206.4
			c0-80.5,0-163.9,0-245.9c0-67.1,24.6-123.7,74.5-169.2c60.4-54.4,142.3-72.3,220.6-48.4c76,23.8,131.9,84.2,149.8,161
			c15.6,69.3,0.7,135.6-44,193.8c-41.7,53.7-84.2,108.1-125.9,161.7c-36.5,46.9-73.8,94.6-110.3,141.6c-5.2,7.5-11.2,14.2-16.4,21.6
			c-10.4,13.4-20.9,27.6-32,41.7c-5.2,6-7.5,11.9-7.5,19.4c0,76,0.7,139.4,0,204.9c0,1.5,0,2.2,0,3c0.7,0,1.5,0,3,0
			c21.6,0,44,0,65.6,0c35.8,0,72.3,0.7,108.8-0.7c16.4-0.7,118.5-38,134.9-126.7c11.9-65.6-35-131.9-85.7-161.7
			c-6-3.7-12.7-6.7-19.4-9.7l-20.1-8.9l12.7-16.4c6.7-8.9,14.2-17.9,21.6-26.8c7.5-8.9,15.6-18.6,23.8-26.8l7.5-8.2l10.4,4.5
			c20.9,8.9,41,20.1,58.9,33.5c11.2,8.9,32.8,24.6,52.9,52.2c25.3,35,34.3,67.8,38,84.2c32.8,128.2-36.5,258.6-162.5,303.3
			c-32.8,11.9-64.8,17.9-96.1,17.1c-50.7-0.7-101.3-0.7-151.3-0.7c-22.4,0-44.7,0-67.1,0h-6c-14.9,0-24.6,0-32-7.5
			c-8.2-8.2-8.2-18.6-8.2-35.8v-1.5c0-38,0-76,0-114v-29.1L693.8,1710z M1021,1668.3c30.6,0,61.1,0,92.4,0.7
			c27.6,0.7,55.1-4.5,85-14.9c109.5-39.5,170.7-153.5,142.3-266c-3.7-14.9-11.2-43.2-32.8-73c-17.1-23.8-36.5-38-46.2-45.5
			c-13.4-9.7-27.6-18.6-42.5-25.3c-5.2,6-10.4,11.9-14.9,17.9c-3,3.7-6,6.7-8.9,10.4c1.5,0.7,3,1.5,4.5,3
			c61.1,36.5,114.8,114.8,100.6,194.5c-18.6,102.8-131.2,151.3-164.7,152c-36.5,1.5-73.8,1.5-110.3,0.7c-21.6,0-43.2,0-64.8,0
			c-7.5,0-17.9-0.7-26.1-8.9c-8.9-8.9-8.9-21.6-8.9-26.1c0-65.6,0-128.9,0-204.2c0-14.9,4.5-27.6,14.2-40.2
			c11.2-13.4,21.6-26.8,31.3-40.2c5.2-7.5,11.2-14.2,16.4-21.6c36.5-46.9,73.8-94.6,110.3-141.6c41.7-53.7,84.2-108.1,125.9-161.7
			c39.5-50.7,52.2-106.6,38-166.9c-14.9-65.6-63.3-117-128.2-137.9c-67.1-20.9-137.9-5.2-190,41.7c-42.5,38.8-64.1,87.9-64.1,145.3
			c0,82,0,165.4,0,245.9c0,68.6,0,137.9,0,206.4c0,22.4-6,40.2-19.4,57.4c-27.6,34.3-55.1,70.1-82,104.3
			c-17.1,21.6-33.5,43.2-50.7,64.8c-1.5,2.2-3,3.7-4.5,6c-5.2,7.5-11.9,17.1-23.8,23.8l-11.9,6.7l-8.2-10.4
			c-12.7-16.4-26.1-32.8-38.8-49.2c-27.6-35-55.9-70.8-82.7-107.3c-81.2-110.3-85.7-255.6-10.4-371.1c21.6-32.8,42.5-65.6,64.1-98.4
			c143.1-218.3,286.9-435.9,430-653.6c0.7-0.7,1.5-2.2,1.5-3c3-6,7.5-15.6,20.1-19.4l5.2-1.5l5.2,2.2c9.7,3.7,14.2,11.9,16.4,16.4
			c0.7,0.7,0.7,1.5,1.5,2.2c41,61.9,82,124.5,123,187l94.6,144.6c91.7,139.4,186.3,283.9,279.5,425.5
			c74.5,114,70.8,258.6-11.2,368.1c-43.2,58.1-88.7,116.3-132.6,172.9c-17.9,23.1-36.5,46.9-54.4,70h58.9
			c56.6-74.5,107.3-140.1,155-200.5c55.1-70.8,82-148.3,81.2-237.7c-0.7-73-20.9-139.4-61.1-202c-26.8-41.7-55.1-84.2-82-125.9
			l-3-4.5c-154.3-235.5-309.3-471-464.3-706.5c-3-4.5-6-8.9-8.9-12.7c-0.7,1.5-1.5,2.2-2.2,3c-24.6,37.3-48.4,74.5-73,111.8
			c-46.2,70.8-94.6,144.6-141.6,216.9c-112.5,172.1-225.1,342.1-333.1,506c-55.1,83.5-77.5,165.4-67.8,251.9
			c7.5,71.5,29.8,130.4,67.8,181.1c31.3,41,63.3,82,94.6,122.2c11.9,15.6,23.8,30.6,35.8,46.2c12.7,16.4,26.1,32.8,39.5,49.9
			l6.7,8.9l159.5-204.2l26.8,10.4v76c0,38,0,76,0,114v1.5c0,4.5,0,8.2,0,11.9c2.2,0,5.2,0,8.2,0h6c22.4,0,44.7,0,66.3,0
			C980.7,1668.3,1000.9,1668.3,1021,1668.3z M940.5,1248.7l-5.2-4.5c-10.4-8.2-9.7-19.4-9.7-23.8c0-0.7,0-0.7,0-1.5v-74.5
			c0-93.9,0-191.5,0-287.7l0,0c0-63.3,39.5-118.5,97.6-137.9c64.1-20.9,130.4-1.5,169.2,49.2c37.3,48.4,38,116.3,2.2,169.2
			c-17.1,25.3-36.5,49.9-55.1,73.8c-6.7,8.2-12.7,16.4-19.4,24.6c-53.7,69.3-102.1,131.9-149,190.8c-0.7,0.7-1.5,2.2-2.2,3
			c-3,5.2-8.9,14.9-22.4,17.1L940.5,1248.7z M956.9,856.8c0,96.1,0,193,0,287.7v49.2c43.2-55.1,88.7-113.3,137.9-177.4
			c6.7-8.2,12.7-16.4,19.4-24.6c18.6-23.1,37.3-46.9,54.4-71.5c28.3-41,27.6-93.9-1.5-131.9c-31.3-41-82.7-55.1-134.1-38.8
			C988.2,764.3,957.6,807.6,956.9,856.8L956.9,856.8z"/>
	</g>
</g>
</svg>
